<svg width="256" height="288" viewBox="0 0 256 288" xmlns="http://www.w3.org/2000/svg" preserveAspectRatio="xMidYMid"><path d="M255.57 84.72c-.003-4.83-1.036-9.098-3.125-12.76-2.052-3.603-5.125-6.622-9.247-9.01C209.173 43.333 175.115 23.774 141.1 4.135c-9.17-5.294-18.06-5.1-27.162.27C100.395 12.39 32.59 51.235 12.385 62.94 4.065 67.757.015 75.13.013 84.71 0 124.167.013 163.62 0 203.077c.002 4.724.99 8.91 2.988 12.517 2.053 3.71 5.17 6.813 9.386 9.254 20.206 11.703 88.02 50.547 101.56 58.536 9.106 5.373 17.997 5.565 27.17.27 34.015-19.64 68.075-39.2 102.105-58.818 4.21-2.44 7.33-5.544 9.38-9.252 1.99-3.608 2.982-7.793 2.984-12.518 0 0 0-78.89-.013-118.345" fill="#5C8DBC"/><path d="M128.182 143.51L2.988 215.592c2.053 3.71 5.17 6.813 9.386 9.254 20.206 11.703 88.02 50.547 101.56 58.536 9.106 5.373 17.997 5.565 27.17.27 34.015-19.64 68.075-39.2 102.105-58.818 4.21-2.44 7.33-5.544 9.38-9.252L128.18 143.51" fill="#1A4674"/><path d="M91.1 164.86c7.286 12.72 20.98 21.297 36.69 21.297 15.808 0 29.58-8.687 36.83-21.54l-36.438-21.108-37.08 21.35" fill="#1A4674"/><path d="M255.57 84.72c-.003-4.83-1.036-9.098-3.125-12.76l-124.263 71.55 124.413 72.073c1.994-3.608 2.985-7.793 2.987-12.518 0 0 0-78.89-.013-118.345" fill="#1B598E"/><path d="M248.728 148.66h-9.722v9.725h-9.724v-9.724h-9.72v-9.72h9.72v-9.72h9.724v9.72h9.722v9.72m-35.475 0h-9.72v9.73h-9.723v-9.722h-9.722v-9.72h9.722v-9.72h9.722v9.72h9.72v9.72" fill="#FFF"/><path d="M164.62 164.616c-7.25 12.854-21.022 21.54-36.83 21.54-15.71 0-29.404-8.577-36.69-21.295a42.05 42.05 0 0 1-5.573-20.96c0-23.34 18.923-42.262 42.264-42.262 15.61 0 29.24 8.47 36.56 21.06l36.94-21.272c-14.68-25.35-42.094-42.4-73.492-42.4-46.875 0-84.874 38-84.874 84.874 0 15.377 4.09 29.8 11.24 42.237 14.647 25.48 42.138 42.64 73.635 42.64 31.555 0 59.09-17.226 73.714-42.78l-36.888-21.372" fill="#FFF"/></svg>